<svg version="1" xmlns="http://www.w3.org/2000/svg" width="373.333" height="373.333" viewBox="0 0 280.000000 280.000000"><path d="M116.5 10.9c-10.7.7-15.2 3-19 9.5-5.4 9.2-1.7 19.3 8.9 24.8 3.8 1.9 5.2 2 28.5 1.4 13.5-.3 39.1-.7 56.9-.8l32.2-.3V123c0 42.6-.3 89-.7 103.2-.7 27.6-.5 28.9 4.5 35.6 7.9 10.8 22.7 9.2 28.5-3l2.5-5.3.4-115c.3-111.1.2-115.1-1.6-118.8-1-2.1-3.5-5-5.4-6.5l-3.5-2.7-61.6-.1c-33.9-.1-65.6.2-70.6.5zM31.5 13.5c-4.9 1.7-10.7 8-12.3 13.3-.9 2.9-1.2 33.3-1.2 118.4v114.4l2.9 4.6c1.9 3 4.4 5.2 7.5 6.7l4.5 2.2 66.8-.6 66.8-.7 5.3-2.5c9.7-4.6 13.7-14.5 9.3-23.1-2.2-4.3-4.1-6.2-9.4-9.1-3.9-2.2-4-2.2-53.5-1.4-65.7 1-64.7 1-64.5-.4.2-.7.3-47.9.3-104.9V26.7l-2.5-4.3c-2.8-4.7-6.2-7.5-11.4-9.2-4.1-1.4-3.6-1.4-8.6.3z"/></svg>